<?xml version="1.0" encoding="UTF-8" standalone="no"?>
<svg width="456" height="456" viewBox="0 0 456 456" version="1.1" xmlns="http://www.w3.org/2000/svg">
    <defs>
        <radialGradient id="glow" cx="50%" cy="35%" r="70%">
            <stop offset="0%" stop-color="#FFB35C" stop-opacity="0.30" />
            <stop offset="55%" stop-color="#FF8A1F" stop-opacity="0.12" />
            <stop offset="100%" stop-color="#0B0D11" stop-opacity="0" />
        </radialGradient>
        <linearGradient id="pin" x1="0%" y1="0%" x2="100%" y2="100%">
            <stop offset="0%" stop-color="#FFCC8A" />
            <stop offset="100%" stop-color="#FF8A1F" />
        </linearGradient>
    </defs>

    <rect x="0" y="0" width="456" height="456" fill="#0B0D11" />
    <circle cx="228" cy="140" r="165" fill="url(#glow)" />

    <circle cx="228" cy="178" r="62" fill="none" stroke="#1E2430" stroke-width="10" />
    <path d="M228 100 C183 100 146 137 146 182 C146 247 228 310 228 310 C228 310 310 247 310 182 C310 137 273 100 228 100 Z" fill="url(#pin)" />
    <circle cx="228" cy="182" r="28" fill="#0B0D11" opacity="0.92" />
    <circle cx="228" cy="182" r="14" fill="#FF8A1F" />

    <path d="M132 312 C164 294 191 286 228 286 C265 286 292 294 324 312" fill="none" stroke="#263041" stroke-width="8" stroke-linecap="round" />
    <path d="M153 327 C180 313 203 307 228 307 C253 307 276 313 303 327" fill="none" stroke="#3A4557" stroke-width="6" stroke-linecap="round" opacity="0.75" />

    <text x="228" y="378" text-anchor="middle" font-family="Arial, Helvetica, sans-serif" font-size="34" font-weight="700" fill="#F4F7FB">SmartTourGuide</text>
</svg>